<svg width="282" height="931" viewBox="0 0 282 931" fill="none" xmlns="http://www.w3.org/2000/svg">
<g opacity="0.8" clip-path="url(#clip0_2650_2377)">
<path d="M100.336 834.264C100.336 835.784 99.1923 836.923 97.6678 836.923C96.1433 836.923 95 835.784 95 834.264C95 832.745 96.1433 831.605 97.6678 831.605C99.1923 831.605 100.336 832.872 100.336 834.264Z" fill="white"/>
<path d="M123.075 834.264C123.075 835.784 121.932 836.923 120.408 836.923C118.883 836.923 117.74 835.784 117.74 834.264C117.74 832.745 118.883 831.605 120.408 831.605C121.805 831.605 123.075 832.872 123.075 834.264Z" fill="white"/>
<path d="M145.688 834.264C145.688 835.784 144.545 836.923 143.02 836.923C141.496 836.923 140.353 835.784 140.353 834.264C140.353 832.745 141.496 831.605 143.02 831.605C144.545 831.605 145.688 832.872 145.688 834.264Z" fill="white"/>
<path d="M168.428 834.264C168.428 835.784 167.285 836.923 165.76 836.923C164.236 836.923 163.092 835.784 163.092 834.264C163.092 832.745 164.236 831.605 165.76 831.605C167.285 831.605 168.428 832.872 168.428 834.264Z" fill="white"/>
<path d="M191.168 834.264C191.168 835.784 190.024 836.923 188.5 836.923C186.975 836.923 185.832 835.784 185.832 834.264C185.832 832.745 186.975 831.605 188.5 831.605C189.897 831.605 191.168 832.872 191.168 834.264Z" fill="white"/>
<path d="M213.908 834.264C213.908 835.784 212.765 836.923 211.24 836.923C209.716 836.923 208.572 835.784 208.572 834.264C208.572 832.745 209.716 831.605 211.24 831.605C212.765 831.605 213.908 832.872 213.908 834.264Z" fill="white"/>
<path d="M236.52 834.264C236.52 835.784 235.377 836.923 233.852 836.923C232.328 836.923 231.185 835.784 231.185 834.264C231.185 832.745 232.328 831.605 233.852 831.605C235.377 831.605 236.52 832.872 236.52 834.264Z" fill="white"/>
<path d="M259.26 834.264C259.26 835.784 258.117 836.923 256.592 836.923C255.068 836.923 253.924 835.784 253.924 834.264C253.924 832.745 255.068 831.605 256.592 831.605C258.117 831.605 259.26 832.872 259.26 834.264Z" fill="white"/>
<path d="M282 834.264C282 835.784 280.857 836.923 279.332 836.923C277.808 836.923 276.665 835.784 276.665 834.264C276.665 832.745 277.808 831.605 279.332 831.605C280.73 831.605 282 832.872 282 834.264Z" fill="white"/>
<path d="M100.336 853.131C100.336 854.65 99.1923 855.79 97.6678 855.79C96.1433 855.79 95 854.65 95 853.131C95 851.611 96.1433 850.472 97.6678 850.472C99.1923 850.472 100.336 851.611 100.336 853.131Z" fill="white"/>
<path d="M123.075 853.131C123.075 854.65 121.932 855.79 120.408 855.79C118.883 855.79 117.74 854.65 117.74 853.131C117.74 851.611 118.883 850.472 120.408 850.472C121.805 850.472 123.075 851.611 123.075 853.131Z" fill="white"/>
<path d="M145.688 853.131C145.688 854.65 144.545 855.79 143.02 855.79C141.496 855.79 140.353 854.65 140.353 853.131C140.353 851.611 141.496 850.472 143.02 850.472C144.545 850.472 145.688 851.611 145.688 853.131Z" fill="white"/>
<path d="M168.428 853.131C168.428 854.65 167.285 855.79 165.76 855.79C164.236 855.79 163.092 854.65 163.092 853.131C163.092 851.611 164.236 850.472 165.76 850.472C167.285 850.472 168.428 851.611 168.428 853.131Z" fill="white"/>
<path d="M191.168 853.131C191.168 854.65 190.024 855.79 188.5 855.79C186.975 855.79 185.832 854.65 185.832 853.131C185.832 851.611 186.975 850.472 188.5 850.472C189.897 850.472 191.168 851.611 191.168 853.131Z" fill="white"/>
<path d="M213.908 853.131C213.908 854.65 212.765 855.79 211.24 855.79C209.716 855.79 208.572 854.65 208.572 853.131C208.572 851.611 209.716 850.472 211.24 850.472C212.765 850.472 213.908 851.611 213.908 853.131Z" fill="white"/>
<path d="M236.52 853.131C236.52 854.65 235.377 855.79 233.852 855.79C232.328 855.79 231.185 854.65 231.185 853.131C231.185 851.611 232.328 850.472 233.852 850.472C235.377 850.472 236.52 851.611 236.52 853.131Z" fill="white"/>
<path d="M259.26 853.131C259.26 854.65 258.117 855.79 256.592 855.79C255.068 855.79 253.924 854.65 253.924 853.131C253.924 851.611 255.068 850.472 256.592 850.472C258.117 850.472 259.26 851.611 259.26 853.131Z" fill="white"/>
<path d="M282 853.131C282 854.65 280.857 855.79 279.332 855.79C277.808 855.79 276.665 854.65 276.665 853.131C276.665 851.611 277.808 850.472 279.332 850.472C280.73 850.472 282 851.611 282 853.131Z" fill="white"/>
<path d="M100.336 796.659C100.336 798.178 99.1923 799.318 97.6678 799.318C96.1433 799.318 95 798.178 95 796.659C95 795.14 96.1433 794 97.6678 794C99.1923 794 100.336 795.14 100.336 796.659Z" fill="white"/>
<path d="M123.075 796.659C123.075 798.178 121.932 799.318 120.408 799.318C118.883 799.318 117.74 798.178 117.74 796.659C117.74 795.14 118.883 794 120.408 794C121.805 794 123.075 795.14 123.075 796.659Z" fill="white"/>
<path d="M145.688 796.659C145.688 798.178 144.545 799.318 143.02 799.318C141.496 799.318 140.353 798.178 140.353 796.659C140.353 795.14 141.623 794 143.02 794C144.545 794 145.688 795.14 145.688 796.659Z" fill="white"/>
<path d="M168.428 796.659C168.428 798.178 167.285 799.318 165.76 799.318C164.236 799.318 163.092 798.178 163.092 796.659C163.092 795.14 164.363 794 165.76 794C167.158 794 168.428 795.14 168.428 796.659Z" fill="white"/>
<path d="M191.168 796.659C191.168 798.178 190.024 799.318 188.5 799.318C186.975 799.318 185.832 798.178 185.832 796.659C185.832 795.14 186.975 794 188.5 794C189.897 794 191.168 795.14 191.168 796.659Z" fill="white"/>
<path d="M213.908 796.659C213.908 798.178 212.765 799.318 211.24 799.318C209.716 799.318 208.572 798.178 208.572 796.659C208.572 795.14 209.716 794 211.24 794C212.765 794 213.908 795.14 213.908 796.659Z" fill="white"/>
<path d="M236.52 796.659C236.52 798.178 235.377 799.318 233.852 799.318C232.328 799.318 231.185 798.178 231.185 796.659C231.185 795.14 232.328 794 233.852 794C235.377 794 236.52 795.14 236.52 796.659Z" fill="white"/>
<path d="M259.26 796.659C259.26 798.178 258.117 799.318 256.592 799.318C255.068 799.318 253.924 798.178 253.924 796.659C253.924 795.14 255.068 794 256.592 794C258.117 794 259.26 795.14 259.26 796.659Z" fill="white"/>
<path d="M282 796.659C282 798.178 280.857 799.318 279.332 799.318C277.808 799.318 276.665 798.178 276.665 796.659C276.665 795.14 277.808 794 279.332 794C280.73 794 282 795.14 282 796.659Z" fill="white"/>
<path d="M100.336 815.525C100.336 817.045 99.1923 818.184 97.6678 818.184C96.1433 818.184 95 816.918 95 815.525C95 814.006 96.1433 812.866 97.6678 812.866C99.1923 812.866 100.336 814.006 100.336 815.525Z" fill="white"/>
<path d="M123.075 815.525C123.075 817.045 121.932 818.184 120.408 818.184C118.883 818.184 117.74 817.045 117.74 815.525C117.74 814.006 118.883 812.866 120.408 812.866C121.805 812.866 123.075 814.006 123.075 815.525Z" fill="white"/>
<path d="M145.688 815.525C145.688 817.045 144.545 818.184 143.02 818.184C141.496 818.184 140.353 817.045 140.353 815.525C140.353 814.006 141.496 812.866 143.02 812.866C144.545 812.866 145.688 814.006 145.688 815.525Z" fill="white"/>
<path d="M168.428 815.525C168.428 817.045 167.285 818.184 165.76 818.184C164.236 818.184 163.092 817.045 163.092 815.525C163.092 814.006 164.236 812.866 165.76 812.866C167.285 812.866 168.428 814.006 168.428 815.525Z" fill="white"/>
<path d="M191.168 815.525C191.168 817.045 190.024 818.184 188.5 818.184C186.975 818.184 185.832 817.045 185.832 815.525C185.832 814.006 186.975 812.866 188.5 812.866C189.897 812.866 191.168 814.006 191.168 815.525Z" fill="white"/>
<path d="M213.908 815.525C213.908 817.045 212.765 818.184 211.24 818.184C209.716 818.184 208.572 817.045 208.572 815.525C208.572 814.006 209.716 812.866 211.24 812.866C212.765 812.866 213.908 814.006 213.908 815.525Z" fill="white"/>
<path d="M236.52 815.525C236.52 817.045 235.377 818.184 233.852 818.184C232.328 818.184 231.185 817.045 231.185 815.525C231.185 814.006 232.328 812.866 233.852 812.866C235.377 812.866 236.52 814.006 236.52 815.525Z" fill="white"/>
<path d="M259.26 815.525C259.26 817.045 258.117 818.184 256.592 818.184C255.068 818.184 253.924 817.045 253.924 815.525C253.924 814.006 255.068 812.866 256.592 812.866C258.117 812.866 259.26 814.006 259.26 815.525Z" fill="white"/>
<path d="M282 815.525C282 817.045 280.857 818.184 279.332 818.184C277.808 818.184 276.665 817.045 276.665 815.525C276.665 814.006 277.808 812.866 279.332 812.866C280.73 812.866 282 814.006 282 815.525Z" fill="white"/>
<path d="M100.336 871.87C100.336 873.389 99.1923 874.529 97.6678 874.529C96.1433 874.529 95 873.389 95 871.87C95 870.35 96.1433 869.211 97.6678 869.211C99.1923 869.211 100.336 870.477 100.336 871.87Z" fill="white"/>
<path d="M123.075 871.87C123.075 873.389 121.932 874.529 120.408 874.529C118.883 874.529 117.74 873.389 117.74 871.87C117.74 870.35 118.883 869.211 120.408 869.211C121.805 869.211 123.075 870.477 123.075 871.87Z" fill="white"/>
<path d="M145.688 871.87C145.688 873.389 144.545 874.529 143.02 874.529C141.496 874.529 140.353 873.389 140.353 871.87C140.353 870.35 141.496 869.211 143.02 869.211C144.545 869.211 145.688 870.477 145.688 871.87Z" fill="white"/>
<path d="M168.428 871.87C168.428 873.389 167.285 874.529 165.76 874.529C164.236 874.529 163.092 873.389 163.092 871.87C163.092 870.35 164.236 869.211 165.76 869.211C167.285 869.211 168.428 870.477 168.428 871.87Z" fill="white"/>
<path d="M191.168 871.87C191.168 873.389 190.024 874.529 188.5 874.529C186.975 874.529 185.832 873.389 185.832 871.87C185.832 870.35 186.975 869.211 188.5 869.211C189.897 869.211 191.168 870.477 191.168 871.87Z" fill="white"/>
<path d="M213.908 871.87C213.908 873.389 212.765 874.529 211.24 874.529C209.716 874.529 208.572 873.389 208.572 871.87C208.572 870.35 209.716 869.211 211.24 869.211C212.765 869.211 213.908 870.477 213.908 871.87Z" fill="white"/>
<path d="M236.52 871.87C236.52 873.389 235.377 874.529 233.852 874.529C232.328 874.529 231.185 873.389 231.185 871.87C231.185 870.35 232.328 869.211 233.852 869.211C235.377 869.211 236.52 870.477 236.52 871.87Z" fill="white"/>
<path d="M259.26 871.87C259.26 873.389 258.117 874.529 256.592 874.529C255.068 874.529 253.924 873.389 253.924 871.87C253.924 870.35 255.068 869.211 256.592 869.211C258.117 869.211 259.26 870.477 259.26 871.87Z" fill="white"/>
<path d="M282 871.87C282 873.389 280.857 874.529 279.332 874.529C277.808 874.529 276.665 873.389 276.665 871.87C276.665 870.35 277.808 869.211 279.332 869.211C280.73 869.211 282 870.477 282 871.87Z" fill="white"/>
<path d="M100.336 890.736C100.336 892.256 99.1923 893.395 97.6678 893.395C96.1433 893.395 95 892.256 95 890.736C95 889.217 96.1433 888.077 97.6678 888.077C99.1923 888.077 100.336 889.217 100.336 890.736Z" fill="white"/>
<path d="M123.075 890.736C123.075 892.256 121.932 893.395 120.408 893.395C118.883 893.395 117.74 892.256 117.74 890.736C117.74 889.217 118.883 888.077 120.408 888.077C121.805 888.077 123.075 889.217 123.075 890.736Z" fill="white"/>
<path d="M145.688 890.736C145.688 892.256 144.545 893.395 143.02 893.395C141.496 893.395 140.353 892.256 140.353 890.736C140.353 889.217 141.496 888.077 143.02 888.077C144.545 888.077 145.688 889.217 145.688 890.736Z" fill="white"/>
<path d="M165.76 893.395C167.233 893.395 168.428 892.205 168.428 890.736C168.428 889.268 167.233 888.077 165.76 888.077C164.287 888.077 163.092 889.268 163.092 890.736C163.092 892.205 164.287 893.395 165.76 893.395Z" fill="white"/>
<path d="M191.168 890.736C191.168 892.256 190.024 893.395 188.5 893.395C186.975 893.395 185.832 892.256 185.832 890.736C185.832 889.217 186.975 888.077 188.5 888.077C189.897 888.077 191.168 889.217 191.168 890.736Z" fill="white"/>
<path d="M213.908 890.736C213.908 892.256 212.765 893.395 211.24 893.395C209.716 893.395 208.572 892.256 208.572 890.736C208.572 889.217 209.716 888.077 211.24 888.077C212.765 888.077 213.908 889.217 213.908 890.736Z" fill="white"/>
<path d="M236.52 890.736C236.52 892.256 235.377 893.395 233.852 893.395C232.328 893.395 231.185 892.256 231.185 890.736C231.185 889.217 232.328 888.077 233.852 888.077C235.377 888.077 236.52 889.217 236.52 890.736Z" fill="white"/>
<path d="M256.592 893.395C258.065 893.395 259.26 892.205 259.26 890.736C259.26 889.268 258.065 888.077 256.592 888.077C255.119 888.077 253.924 889.268 253.924 890.736C253.924 892.205 255.119 893.395 256.592 893.395Z" fill="white"/>
<path d="M282 890.736C282 892.256 280.857 893.395 279.332 893.395C277.808 893.395 276.665 892.256 276.665 890.736C276.665 889.217 277.808 888.077 279.332 888.077C280.73 888.077 282 889.217 282 890.736Z" fill="white"/>
<path d="M100.336 909.601C100.336 911.121 99.1923 912.26 97.6678 912.26C96.1433 912.26 95 911.121 95 909.601C95 908.082 96.1433 906.942 97.6678 906.942C99.1923 906.942 100.336 908.082 100.336 909.601Z" fill="white"/>
<path d="M123.075 909.601C123.075 911.121 121.932 912.26 120.408 912.26C118.883 912.26 117.74 911.121 117.74 909.601C117.74 908.082 118.883 906.942 120.408 906.942C121.805 906.942 123.075 908.082 123.075 909.601Z" fill="white"/>
<path d="M145.688 909.601C145.688 911.121 144.545 912.26 143.02 912.26C141.496 912.26 140.353 911.121 140.353 909.601C140.353 908.082 141.496 906.942 143.02 906.942C144.545 906.942 145.688 908.082 145.688 909.601Z" fill="white"/>
<path d="M168.428 909.601C168.428 911.121 167.285 912.26 165.76 912.26C164.236 912.26 163.092 911.121 163.092 909.601C163.092 908.082 164.236 906.942 165.76 906.942C167.285 906.942 168.428 908.082 168.428 909.601Z" fill="white"/>
<path d="M191.168 909.601C191.168 911.121 190.024 912.26 188.5 912.26C186.975 912.26 185.832 911.121 185.832 909.601C185.832 908.082 186.975 906.942 188.5 906.942C189.897 906.942 191.168 908.082 191.168 909.601Z" fill="white"/>
<path d="M213.908 909.601C213.908 911.121 212.765 912.26 211.24 912.26C209.716 912.26 208.572 911.121 208.572 909.601C208.572 908.082 209.716 906.942 211.24 906.942C212.765 906.942 213.908 908.082 213.908 909.601Z" fill="white"/>
<path d="M236.52 909.601C236.52 911.121 235.377 912.26 233.852 912.26C232.328 912.26 231.185 911.121 231.185 909.601C231.185 908.082 232.328 906.942 233.852 906.942C235.377 906.942 236.52 908.082 236.52 909.601Z" fill="white"/>
<path d="M259.26 909.601C259.26 911.121 258.117 912.26 256.592 912.26C255.068 912.26 253.924 911.121 253.924 909.601C253.924 908.082 255.068 906.942 256.592 906.942C258.117 906.942 259.26 908.082 259.26 909.601Z" fill="white"/>
<path d="M282 909.601C282 911.121 280.857 912.26 279.332 912.26C277.808 912.26 276.665 911.121 276.665 909.601C276.665 908.082 277.808 906.942 279.332 906.942C280.73 906.942 282 908.082 282 909.601Z" fill="white"/>
<path d="M100.336 928.341C100.336 929.86 99.1923 931 97.6678 931C96.1433 931 95 929.86 95 928.341C95 926.821 96.1433 925.682 97.6678 925.682C99.1923 925.682 100.336 926.948 100.336 928.341Z" fill="white"/>
<path d="M123.075 928.341C123.075 929.86 121.932 931 120.408 931C118.883 931 117.74 929.86 117.74 928.341C117.74 926.821 118.883 925.682 120.408 925.682C121.805 925.682 123.075 926.948 123.075 928.341Z" fill="white"/>
<path d="M145.688 928.341C145.688 929.86 144.545 931 143.02 931C141.496 931 140.353 929.86 140.353 928.341C140.353 926.821 141.496 925.682 143.02 925.682C144.545 925.682 145.688 926.948 145.688 928.341Z" fill="white"/>
<path d="M168.428 928.341C168.428 929.86 167.285 931 165.76 931C164.236 931 163.092 929.86 163.092 928.341C163.092 926.821 164.236 925.682 165.76 925.682C167.285 925.682 168.428 926.948 168.428 928.341Z" fill="white"/>
<path d="M191.168 928.341C191.168 929.86 190.024 931 188.5 931C186.975 931 185.832 929.86 185.832 928.341C185.832 926.821 186.975 925.682 188.5 925.682C189.897 925.682 191.168 926.948 191.168 928.341Z" fill="white"/>
<path d="M213.908 928.341C213.908 929.86 212.765 931 211.24 931C209.716 931 208.572 929.86 208.572 928.341C208.572 926.821 209.716 925.682 211.24 925.682C212.765 925.682 213.908 926.948 213.908 928.341Z" fill="white"/>
<path d="M236.52 928.341C236.52 929.86 235.377 931 233.852 931C232.328 931 231.185 929.86 231.185 928.341C231.185 926.821 232.328 925.682 233.852 925.682C235.377 925.682 236.52 926.948 236.52 928.341Z" fill="white"/>
<path d="M259.26 928.341C259.26 929.86 258.117 931 256.592 931C255.068 931 253.924 929.86 253.924 928.341C253.924 926.821 255.068 925.682 256.592 925.682C258.117 925.682 259.26 926.948 259.26 928.341Z" fill="white"/>
<path d="M282 928.341C282 929.86 280.857 931 279.332 931C277.808 931 276.665 929.86 276.665 928.341C276.665 926.821 277.808 925.682 279.332 925.682C280.73 925.682 282 926.948 282 928.341Z" fill="white"/>
</g>
<g opacity="0.3">
<path d="M93.8067 120.221L103.465 129.88L77.782 155.563L52.0986 129.88L61.6842 120.294L77.7089 136.319L93.8067 120.221Z" fill="white"/>
<path d="M93.8057 85.5386L103.391 95.1241L77.7079 120.807L52.0977 95.1973L61.7564 85.5386L77.7811 101.563L93.8057 85.5386Z" fill="white"/>
<path d="M93.733 50.7816L103.392 60.4404L77.7815 86.0506L52.0981 60.3672L61.6837 50.7816L77.7084 66.8063L93.733 50.7816Z" fill="white"/>
<path d="M93.8062 16.0239L103.465 25.6826L77.7815 51.366L52.0981 25.6826L61.7569 16.0239L77.7815 32.0486L93.8062 16.0239Z" fill="white"/>
</g>
<defs>
<clipPath id="clip0_2650_2377">
<rect width="187" height="137" fill="white" transform="translate(95 794)"/>
</clipPath>
</defs>
</svg>
