<svg width="982" height="947" viewBox="0 0 982 947" fill="none" xmlns="http://www.w3.org/2000/svg">
<g opacity="0.2" clip-path="url(#clip0_2647_2358)">
<path d="M142.097 763C63.5443 763 0 826.544 0 905.097C0 983.456 63.5443 1047.19 142.097 1047.19C220.456 1047.19 284.195 983.651 284.195 905.097C284 826.544 220.456 763 142.097 763ZM142.097 1038.03C68.6122 1038.03 9.16129 978.583 9.16129 905.097C9.16129 831.612 68.6122 772.161 142.097 772.161C215.583 772.161 275.034 831.612 275.034 905.097C275.034 978.388 215.388 1038.03 142.097 1038.03Z" fill="white"/>
<path d="M142.099 793.603C80.6986 793.603 30.7988 843.502 30.7988 904.902C30.7988 966.303 80.6986 1016.2 142.099 1016.2C203.499 1016.2 253.399 966.498 253.399 905.097C253.399 843.502 203.499 793.603 142.099 793.603ZM142.099 999.244C90.0548 999.244 47.757 956.946 47.757 904.902C47.757 852.859 90.0548 810.561 142.099 810.561C194.143 810.561 236.441 852.859 236.441 904.902C236.441 956.946 194.143 999.244 142.099 999.244Z" fill="white"/>
<path d="M142.098 842.527C107.597 842.527 79.5283 870.596 79.5283 905.097C79.5283 939.598 107.402 967.667 142.098 967.667C176.599 967.667 204.668 939.598 204.668 905.097C204.473 870.596 176.599 842.527 142.098 842.527ZM142.098 938.623C123.58 938.623 108.572 923.614 108.572 905.097C108.572 886.579 123.58 871.571 142.098 871.571C160.616 871.571 175.624 886.579 175.624 905.097C175.624 923.614 160.616 938.623 142.098 938.623Z" fill="white"/>
</g>
<path opacity="0.3" d="M906 675.553C892.071 689.482 869.377 689.482 855.447 675.553C841.518 661.623 841.518 638.929 855.447 625L906 675.553Z" fill="white"/>
<g opacity="0.3">
<path d="M960.486 396.89C971.205 396.89 979.937 388.165 979.937 377.453C979.937 366.742 971.205 358.017 960.486 358.017L960.486 396.89Z" fill="white"/>
<path d="M930.141 396.89C940.861 396.89 949.592 388.165 949.592 377.453C949.592 366.742 940.861 358.017 930.141 358.017L930.141 396.89Z" fill="white"/>
<path d="M899.796 396.89C910.515 396.89 919.247 388.165 919.247 377.453C919.247 366.742 910.515 358.017 899.796 358.017L899.796 396.89Z" fill="white"/>
</g>
<g opacity="0.3">
<path d="M258.301 11.9214L258.301 0.000445277L290 0.000442506L290 31.6992L278.169 31.6992L278.169 11.9214L258.301 11.9214Z" fill="white"/>
<path d="M236.898 33.3247L236.898 21.4941L268.597 21.4941L268.597 53.1025L256.676 53.1025L256.676 33.3247L236.898 33.3247Z" fill="white"/>
<path d="M215.495 54.8188L215.495 42.8979L247.103 42.8979L247.103 74.5967L235.272 74.5967L235.272 54.8188L215.495 54.8188Z" fill="white"/>
<path d="M194 76.2221L194 64.3012L225.699 64.3012L225.699 96L213.778 96L213.778 76.2221L194 76.2221Z" fill="white"/>
</g>
<defs>
<clipPath id="clip0_2647_2358">
<rect width="284" height="284" fill="white" transform="translate(0 763)"/>
</clipPath>
</defs>
</svg>
