<svg width="16" height="16" viewBox="0 0 16 16" fill="none" xmlns="http://www.w3.org/2000/svg">
<path fill-rule="evenodd" clip-rule="evenodd" d="M7.70233 0.736398C7.89001 0.642555 8.11093 0.642555 8.29861 0.736398L14.9653 4.06973C15.1911 4.18266 15.3338 4.4135 15.3338 4.66602C15.3338 4.91853 15.1911 5.14937 14.9653 5.2623L8.29861 8.59563C8.11093 8.68948 7.89001 8.68948 7.70233 8.59563L1.03566 5.2623C0.809806 5.14937 0.667138 4.91853 0.667138 4.66602C0.667138 4.4135 0.809806 4.18266 1.03566 4.06973L7.70233 0.736398ZM2.82452 4.66602L8.00047 7.25399L13.1764 4.66602L8.00047 2.07804L2.82452 4.66602Z" fill="#9A9CA5"/>
<path fill-rule="evenodd" clip-rule="evenodd" d="M0.73752 7.70121C0.90218 7.37189 1.30263 7.2384 1.63195 7.40306L8.00047 10.5873L14.369 7.40306C14.6983 7.2384 15.0988 7.37189 15.2634 7.70121C15.4281 8.03052 15.2946 8.43097 14.9653 8.59563L8.29861 11.929C8.11093 12.0228 7.89001 12.0228 7.70233 11.929L1.03566 8.59563C0.706344 8.43097 0.572861 8.03052 0.73752 7.70121Z" fill="#9A9CA5"/>
<path fill-rule="evenodd" clip-rule="evenodd" d="M0.73752 11.0345C0.90218 10.7052 1.30263 10.5717 1.63195 10.7364L8.00047 13.9207L14.369 10.7364C14.6983 10.5717 15.0988 10.7052 15.2634 11.0345C15.4281 11.3639 15.2946 11.7643 14.9653 11.929L8.29861 15.2623C8.11093 15.3561 7.89001 15.3561 7.70233 15.2623L1.03566 11.929C0.706344 11.7643 0.572861 11.3639 0.73752 11.0345Z" fill="#9A9CA5"/>
</svg>
