<svg width="16" height="16" viewBox="0 0 16 16" fill="none" xmlns="http://www.w3.org/2000/svg">
<path fill-rule="evenodd" clip-rule="evenodd" d="M9.45421 2.16732C9.36119 2.16732 9.27498 2.21676 9.22794 2.29736L9.22384 2.30438L6.16634 7.26115V13.834H11.8902C12.013 13.834 12.1193 13.7487 12.1459 13.629L12.1482 13.6186L13.8482 6.97883C13.8793 6.8179 13.756 6.66732 13.591 6.66732H10.9997C10.5656 6.66732 10.1263 6.52228 9.80647 6.21014C9.47026 5.88199 9.31439 5.41203 9.41442 4.90572L9.89365 2.48001C9.92565 2.31806 9.8017 2.16732 9.63676 2.16732H9.45421ZM4.83301 13.834V7.73875H2.4707C2.3269 7.73875 2.20991 7.85476 2.2088 7.99872C2.2088 7.99872 2.2088 7.99872 2.2088 7.99872L2.16635 13.5701C2.16523 13.7154 2.28278 13.834 2.42819 13.834H4.83301ZM5.1276 6.40541L8.08106 1.61731C8.36794 1.13222 8.88983 0.833984 9.45421 0.833984H9.63676C10.6419 0.833984 11.3965 1.75237 11.2017 2.73844L10.7225 5.16415C10.7139 5.20732 10.7195 5.22693 10.7208 5.23124C10.7223 5.23604 10.7255 5.24402 10.7378 5.25596C10.7657 5.28317 10.8487 5.33398 10.9997 5.33398H13.591C14.6116 5.33398 15.3696 6.27923 15.1482 7.27539L15.1459 7.28579L13.4448 13.93C13.2783 14.6537 12.6338 15.1673 11.8902 15.1673H2.42819C1.54249 15.1673 0.826267 14.4457 0.833056 13.56C0.833056 13.56 0.833056 13.56 0.833056 13.56L0.875504 7.98854C0.882222 7.11235 1.59436 6.40541 2.4707 6.40541H5.1276Z" fill="#9A9CA5"/>
</svg>
