<svg width="16" height="15" viewBox="0 0 16 15" fill="none" xmlns="http://www.w3.org/2000/svg">
<path fill-rule="evenodd" clip-rule="evenodd" d="M6.7798 0.801074C7.24297 -0.267024 8.75768 -0.267025 9.22085 0.801074L10.6219 4.03208L14.1277 4.36614C15.2867 4.47658 15.7548 5.91716 14.8821 6.68771L12.2422 9.01865L13.0078 12.4561C13.2609 13.5925 12.0355 14.4828 11.033 13.8909L8.00033 12.1005L4.9677 13.8909C3.96518 14.4828 2.73975 13.5925 2.99285 12.4561L3.75849 9.01865L1.11858 6.68771C0.245887 5.91716 0.713958 4.47658 1.87291 4.36614L5.37873 4.03208L6.7798 0.801074ZM9.4014 4.56134L8.00033 1.33033L6.59925 4.56134C6.40649 5.00587 5.98727 5.31045 5.50492 5.35641L1.9991 5.69048L4.63901 8.02142C5.00222 8.34212 5.16235 8.83493 5.05701 9.30787L4.29137 12.7453L7.32399 10.9549C7.74124 10.7086 8.25941 10.7086 8.67666 10.9549L11.7093 12.7453L10.9436 9.30787C10.8383 8.83493 10.9984 8.34212 11.3616 8.02141L14.0016 5.69048L10.4957 5.35641C10.0134 5.31045 9.59417 5.00587 9.4014 4.56134Z" fill="#9A9CA5"/>
</svg>
